<?xml version="1.0" encoding="UTF-8"?> <svg xmlns="http://www.w3.org/2000/svg" xmlns:xlink="http://www.w3.org/1999/xlink" version="1.1" id="Capa_1" x="0px" y="0px" viewBox="0 0 390 147" style="enable-background:new 0 0 390 147;" xml:space="preserve"> <style type="text/css"> .st0{fill-rule:evenodd;clip-rule:evenodd;} </style> <path class="st0" d="M17.48,94.89c0-10.28,15.84-5.96,20.26-9.67h0.1c-0.62,4.83-2.67,15.22-13.27,15.22 C21.08,100.45,17.48,99.11,17.48,94.89L17.48,94.89z M23.55,72.78c0.72-5.04,4.11-6.68,9.67-6.68c5.25,0,7.4,2.06,7.4,5.14 c0,6.99-8.23,6.58-14.19,6.89C12.75,79.16,0,81.93,0,96.23c0,11.01,7.4,15.02,17.38,15.02c7.61,0,12.86-1.95,16.15-6.69h0.21 c0,2.78,0,2.57,0.41,5.14h17.18c-0.31-0.93-0.72-2.26-0.72-4.11c0-2.88,0.72-6.27,1.65-9.98c1.23-4.94,5.25-19.75,5.25-26.84 c0-10.39-9.57-13.99-24.38-13.99c-13.06,0-23.35,4.11-26.12,18H23.55L23.55,72.78z M51.68,109.7l24.17-28.28L63.71,56.32h18.1 l5.04,13.78l9.77-13.78h19.44l-21.8,25.92l13.47,27.46h-18l-6.68-15.74L71.02,109.7H51.68L51.68,109.7z M109.64,109.7h17.48 l11.11-53.38h-17.48L109.64,109.7L109.64,109.7z M142.44,36.27h-17.48l-2.78,13.37h17.48L142.44,36.27L142.44,36.27z M138.79,88 c0,15.74,10.8,23.24,25.61,23.24c19.34,0,31.37-13.88,31.37-32.91c0-15.32-10.59-23.55-25.2-23.55 C151.24,54.78,138.79,69.08,138.79,88L138.79,88z M156.28,87.38c0-7.2,3.7-19.75,13.16-19.75c6.58,0,8.84,4.73,8.84,11.42 c0,8.23-3.5,19.34-13.47,19.34C158.64,98.39,156.28,93.45,156.28,87.38L156.28,87.38z M196.44,109.7h17.48l4.73-22.63 c1.85-8.74,3.09-18.92,13.88-18.92c3.7,0,6.38,2.26,6.38,6.48c0,2.06-0.51,4.32-1.03,6.79l-6.07,28.28h17.48l6.38-28.39 c0.62-2.67,1.85-8.02,1.85-11.52c0-9.15-5.76-15.02-15.32-15.02c-9.36,0-15.84,4.42-18.41,8.02h-0.21l1.44-6.48h-17.48L196.44,109.7 L196.44,109.7z M257.99,109.7h17.48l15.32-73.43h-17.48L257.99,109.7L257.99,109.7z M285.2,109.7l11.11-53.38h17.48l-11.11,53.38 H285.2L285.2,109.7z M318.01,36.27h-17.48l-2.78,13.37h17.48L318.01,36.27L318.01,36.27z M314.87,109.7l8.85-42.07h-8.54l2.37-11.31 h8.54c0.93-3.7,1.65-7.82,3.5-11.52c3.6-7.1,10.9-9.05,18.1-9.05c4.42,0,8.02,0.31,11.11,0.82l-2.47,12.34 c-1.65-0.1-3.09-0.31-4.63-0.31c-6.38,0-7.41,3.7-8.13,7.71h10.18l-2.37,11.31H341.2l-8.84,42.07H314.87L314.87,109.7z M382.29,40.28H364.8l-3.39,16.04h-8.85l-2.37,11.31h8.84l-4.11,19.34c-1.34,6.27-2.06,10.39-2.06,14.09 c0,8.12,8.43,9.26,16.56,9.26c3.39,0,6.69-0.41,10.18-0.62l2.67-13.06c-1.85,0.1-3.6,0.31-5.45,0.31c-2.98,0-5.45-0.21-5.45-2.78 c0-1.85,0.41-4.01,0.93-6.38l4.22-20.16h11.11L390,56.32h-11L382.29,40.28z"></path> </svg> 